<?xml version="1.0" encoding="UTF-8" standalone="no"?>
<svg xmlns="http://www.w3.org/2000/svg" version="1.1" viewBox="0 0 445 189">
   <polyline fill="none" points="348,115 378,115" stroke="rgb(0, 0, 0)" stroke-linecap="square" stroke-width="3.0"/>
   <polyline fill="none" points="278,65 298,65 298,105 318,105" stroke="rgb(0, 0, 0)" stroke-linecap="square" stroke-width="3.0"/>
   <polyline fill="none" points="318,125 298,125 298,165 278,165" stroke="rgb(0, 0, 0)" stroke-linecap="square" stroke-width="3.0"/>
   <polyline fill="none" points="88,125 88,175 138,175" stroke="rgb(0, 0, 0)" stroke-linecap="square" stroke-width="3.0"/>
   <polyline fill="none" points="68,15 138,15" stroke="rgb(0, 0, 0)" stroke-linecap="square" stroke-width="3.0"/>
   <polyline fill="none" points="278,115 318,115" stroke="rgb(0, 0, 0)" stroke-linecap="square" stroke-width="3.0"/>
   <circle cx="78.0" cy="75.0" fill="rgb(0, 0, 0)" r="5.0" stroke="none" stroke-width="3.0"/>
   <circle cx="68.0" cy="15.0" fill="rgb(0, 0, 0)" r="5.0" stroke="none" stroke-width="3.0"/>
   <circle cx="88.0" cy="125.0" fill="rgb(0, 0, 0)" r="5.0" stroke="none" stroke-width="3.0"/>
   <polyline fill="none" points="382,115 379,115" stroke="rgb(0, 0, 0)" stroke-linecap="square" stroke-width="3.0"/>
   <polygon fill="none" points="384,106 408,106 418,115 408,124 384,124" stroke="rgb(0, 0, 0)" stroke-linecap="square" stroke-width="2.0"/>
   <text fill="rgb(0, 0, 0)" font-family="Monospaced" font-size="12" x="384.0" y="121.0">x1</text>
   <text fill="rgb(0, 0, 0)" font-family="Monospaced" font-size="16" font-weight="bold" x="420.0" y="124.0">X3</text>
   <circle cx="378.0" cy="115.0" fill="rgb(0, 0, 0)" r="2.0" stroke="none" stroke-width="2.0"/>
   <polygon fill="none" points="19,66 43,66 53,75 43,84 19,84" stroke="rgb(0, 0, 0)" stroke-linecap="square" stroke-width="2.0"/>
   <text fill="rgb(0, 0, 0)" font-family="Monospaced" font-size="12" x="24.0" y="81.0">x1</text>
   <text fill="rgb(0, 0, 0)" font-family="Monospaced" font-size="16" font-weight="bold" x="5.0" y="84.0">B</text>
   <circle cx="58.0" cy="75.0" fill="rgb(0, 0, 0)" r="2.0" stroke="none" stroke-width="2.0"/>
   <polygon fill="none" points="19,116 43,116 53,125 43,134 19,134" stroke="rgb(0, 0, 0)" stroke-linecap="square" stroke-width="2.0"/>
   <text fill="rgb(0, 0, 0)" font-family="Monospaced" font-size="12" x="24.0" y="131.0">x1</text>
   <text fill="rgb(0, 0, 0)" font-family="Monospaced" font-size="16" font-weight="bold" x="6.0" y="134.0">C</text>
   <circle cx="58.0" cy="125.0" fill="rgb(0, 0, 0)" r="2.0" stroke="none" stroke-width="2.0"/>
   <polygon fill="none" points="19,6 43,6 53,15 43,24 19,24" stroke="rgb(0, 0, 0)" stroke-linecap="square" stroke-width="2.0"/>
   <text fill="rgb(0, 0, 0)" font-family="Monospaced" font-size="12" x="24.0" y="21.0">x1</text>
   <text fill="rgb(0, 0, 0)" font-family="Monospaced" font-size="16" font-weight="bold" x="5.0" y="24.0">A</text>
   <circle cx="58.0" cy="15.0" fill="rgb(0, 0, 0)" r="2.0" stroke="none" stroke-width="2.0"/>
   <polyline fill="none" points="158,175 139,168 139,182 158,175" stroke="rgb(0, 0, 0)" stroke-linecap="square" stroke-width="2.0"/>
   <circle cx="163.0" cy="175.0" fill="none" r="4.5" stroke="rgb(0, 0, 0)" stroke-width="2.0"/>
   <circle cx="168.0" cy="175.0" fill="rgb(0, 0, 0)" r="2.0" stroke="none" stroke-width="2.0"/>
   <circle cx="138.0" cy="175.0" fill="rgb(0, 0, 0)" r="2.0" stroke="none" stroke-width="2.0"/>
   <polyline fill="none" points="158,15 139,8 139,22 158,15" stroke="rgb(0, 0, 0)" stroke-linecap="square" stroke-width="2.0"/>
   <circle cx="163.0" cy="15.0" fill="none" r="4.5" stroke="rgb(0, 0, 0)" stroke-width="2.0"/>
   <circle cx="168.0" cy="15.0" fill="rgb(0, 0, 0)" r="2.0" stroke="none" stroke-width="2.0"/>
   <circle cx="138.0" cy="15.0" fill="rgb(0, 0, 0)" r="2.0" stroke="none" stroke-width="2.0"/>
   <polyline fill="none" points="53,15 58,15 68,15 68,55 248,55 248,55" stroke="rgb(0, 0, 0)" stroke-linecap="square" stroke-width="3.0"/>
   <polyline fill="none" points="53,75 58,75 78,75 248,75 248,75" stroke="rgb(0, 0, 0)" stroke-linecap="square" stroke-width="3.0"/>
   <path d=" M278.0,65.0 C268.0,50.0 268.0,50.0 248.0,50.0 C256.0,65.0 256.0,65.0 248.0,80.0 C268.0,80.0 268.0,80.0 278.0,65.0 Z" fill="none" stroke="rgb(0, 0, 0)" stroke-linecap="square" stroke-width="2.0"/>
   <polyline fill="none" points="78,75 78,105 248,105 248,105" stroke="rgb(0, 0, 0)" stroke-linecap="square" stroke-width="3.0"/>
   <polyline fill="none" points="53,125 58,125 88,125 248,125 248,125" stroke="rgb(0, 0, 0)" stroke-linecap="square" stroke-width="3.0"/>
   <path d=" M278.0,115.0 C268.0,100.0 268.0,100.0 248.0,100.0 C256.0,115.0 256.0,115.0 248.0,130.0 C268.0,130.0 268.0,130.0 278.0,115.0 Z" fill="none" stroke="rgb(0, 0, 0)" stroke-linecap="square" stroke-width="2.0"/>
   <polyline fill="none" points="168,15 188,15 188,155 248,155 248,155" stroke="rgb(0, 0, 0)" stroke-linecap="square" stroke-width="3.0"/>
   <polyline fill="none" points="168,175 248,175 248,175" stroke="rgb(0, 0, 0)" stroke-linecap="square" stroke-width="3.0"/>
   <path d=" M278.0,165.0 C268.0,150.0 268.0,150.0 248.0,150.0 C256.0,165.0 256.0,165.0 248.0,180.0 C268.0,180.0 268.0,180.0 278.0,165.0 Z" fill="none" stroke="rgb(0, 0, 0)" stroke-linecap="square" stroke-width="2.0"/>
   <path d="M333.0,130.0 A15.0,15.0 90.0 0,0 333.0,100.0" fill="none" stroke="rgb(0, 0, 0)" stroke-width="2.0"/>
   <polyline fill="none" points="333,100 319,100 319,130 333,130" stroke="rgb(0, 0, 0)" stroke-linecap="square" stroke-width="2.0"/>
</svg>
